<?xml version="1.0" encoding="UTF-8" standalone="no"?>
<!-- Created with Inkscape (http://www.inkscape.org/) -->

<svg
   width="64"
   height="64"
   id="svg2869"
   version="1.1"
   viewBox="0 0 64 64"
   sodipodi:docname="document-save-as.svg"
   inkscape:version="1.3.2 (091e20ef0f, 2023-11-25)"
   xmlns:inkscape="http://www.inkscape.org/namespaces/inkscape"
   xmlns:sodipodi="http://sodipodi.sourceforge.net/DTD/sodipodi-0.dtd"
   xmlns:xlink="http://www.w3.org/1999/xlink"
   xmlns="http://www.w3.org/2000/svg"
   xmlns:svg="http://www.w3.org/2000/svg"
   xmlns:rdf="http://www.w3.org/1999/02/22-rdf-syntax-ns#"
   xmlns:cc="http://creativecommons.org/ns#"
   xmlns:dc="http://purl.org/dc/elements/1.1/">
  <sodipodi:namedview
     id="namedview1"
     pagecolor="#ffffff"
     bordercolor="#000000"
     borderopacity="0.25"
     inkscape:showpageshadow="2"
     inkscape:pageopacity="0.0"
     inkscape:pagecheckerboard="0"
     inkscape:deskcolor="#d1d1d1"
     inkscape:zoom="9.0819027"
     inkscape:cx="20.700508"
     inkscape:cy="22.682472"
     inkscape:window-width="1917"
     inkscape:window-height="1020"
     inkscape:window-x="1440"
     inkscape:window-y="30"
     inkscape:window-maximized="1"
     inkscape:current-layer="svg2869" />
  <defs
     id="defs2871">
    <linearGradient
       id="linearGradient6">
      <stop
         style="stop-color:#888a85;stop-opacity:1"
         offset="0"
         id="stop7" />
      <stop
         style="stop-color:#d3d7cf;stop-opacity:1"
         offset="1"
         id="stop8" />
    </linearGradient>
    <linearGradient
       xlink:href="#linearGradient6"
       id="linearGradient8"
       x1="11.761719"
       y1="55"
       x2="11.730469"
       y2="9.0234375"
       gradientUnits="userSpaceOnUse"
       gradientTransform="translate(1.0000011)" />
    <linearGradient
       inkscape:collect="always"
       xlink:href="#linearGradient3791"
       id="linearGradient3797"
       x1="448.72443"
       y1="115.0061"
       x2="434.47638"
       y2="78.006104"
       gradientUnits="userSpaceOnUse"
       gradientTransform="matrix(0.40941338,0,0,0.41666716,-171.30586,-27.160438)" />
    <linearGradient
       inkscape:collect="always"
       id="linearGradient3791">
      <stop
         style="stop-color:#ff0000;stop-opacity:1;"
         offset="0"
         id="stop3793" />
      <stop
         style="stop-color:#729fcf;stop-opacity:1"
         offset="1"
         id="stop3795" />
    </linearGradient>
    <linearGradient
       inkscape:collect="always"
       xlink:href="#linearGradient3799"
       id="linearGradient3805"
       x1="444.65356"
       y1="117.0061"
       x2="429.38779"
       y2="86.006104"
       gradientUnits="userSpaceOnUse"
       gradientTransform="matrix(0.40941338,0,0,0.41666716,-171.30586,-27.160438)" />
    <linearGradient
       inkscape:collect="always"
       id="linearGradient3799">
      <stop
         style="stop-color:#204a87;stop-opacity:1;"
         offset="0"
         id="stop3801" />
      <stop
         style="stop-color:#3465a4;stop-opacity:1"
         offset="1"
         id="stop3803" />
    </linearGradient>
  </defs>
  <metadata
     id="metadata2874">
    <rdf:RDF>
      <cc:Work
         rdf:about="">
        <dc:format>image/svg+xml</dc:format>
        <dc:type
           rdf:resource="http://purl.org/dc/dcmitype/StillImage" />
        <dc:creator>
          <cc:Agent>
            <dc:title>[maxwxyz]</dc:title>
          </cc:Agent>
        </dc:creator>
        <dc:relation>https://www.freecad.org/wiki/index.php?title=Artwork</dc:relation>
        <dc:publisher>
          <cc:Agent>
            <dc:title>FreeCAD</dc:title>
          </cc:Agent>
        </dc:publisher>
        <dc:identifier>FreeCAD/src/</dc:identifier>
        <dc:rights>
          <cc:Agent>
            <dc:title>FreeCAD LGPL2+</dc:title>
          </cc:Agent>
        </dc:rights>
        <dc:date>2024</dc:date>
      </cc:Work>
    </rdf:RDF>
  </metadata>
  <g
     id="layer3"
     style="display:inline">
    <g
       id="layer3-3"
       style="display:inline">
      <path
         style="fill:#babdb6;fill-opacity:1;fill-rule:nonzero;stroke:#2e3436;stroke-width:2;stroke-dasharray:none;stroke-opacity:1"
         d="m 46.969644,5.0000007 c -1.016659,0.00167 -36.241296,0.023583 -36.241296,0.023583 -2.2376263,0.0025 -4.0482274,1.8163761 -4.0482274,4.0525194 l 0.030083,45.8765159 c 0,2.237085 1.8159095,4.050186 4.0526024,4.047377 l 42.508917,-0.02617 c 2.236618,-8.34e-4 4.051502,-1.815676 4.048152,-4.052836 0,0 -0.024,-39.562746 -0.024,-40.10958 C 57.294175,13.929073 57.083067,13.202314 56.5137,12.635605 56.147091,12.270547 52.136589,8.2656611 50.075358,6.2044389 49.34977,5.483076 47.985444,5.0000007 46.969644,5.0000007 Z"
         id="path2" />
      <path
         style="fill:url(#linearGradient8);fill-opacity:1;fill-rule:nonzero;stroke:#d3d7cf;stroke-width:2;stroke-dasharray:none;stroke-opacity:1"
         d="m 55.294717,14.611042 -3.28e-4,-0.0032 c 0.0047,6.580947 0.01274,21.853798 0.02592,40.317964 0.0017,1.11961 -0.928889,2.04841 -2.050781,2.048828 L 10.76172,57.000004 C 9.6407231,57.001404 8.7109392,56.073536 8.7109386,54.951176 L 8.6796886,9.0761712 c 0,-1.122432 0.9275825,-2.0514794 2.0507814,-2.0527345 17.70908,-0.011603 30.337148,-0.018565 36.420303,-0.022568 -0.0025,-2.731e-4 -0.005,-5.412e-4 -0.0075,-8.043e-4 -0.170096,5.58e-5 -0.239149,4.11e-5 -0.174522,-6.52e-5 0.539605,0 1.40169,0.3291821 1.693359,0.6191406 2.061938,2.0619294 6.067557,6.0613262 6.441407,6.4335932 0.02999,0.02985 0.190469,0.273705 0.191406,0.757813 0,0.03115 -7.4e-5,-0.04282 -2.06e-4,-0.199504 z"
         id="path5" />
      <path
         style="fill:#eeeeec;fill-opacity:1;fill-rule:nonzero;stroke:#555753;stroke-width:2;stroke-dasharray:none;stroke-opacity:1"
         d="m 44.021216,9.0020721 0.0094,12.3869269 c 0,1.204367 -1.237967,2.357126 -2.442018,2.359001 l -17.601769,0.01117 c -1.202576,0.0017 -2.33016,-1.150418 -2.33016,-2.354868 L 21.645439,9.0171471 Z"
         id="path1" />
      <path
         style="fill:#eeeeec;fill-opacity:1;fill-rule:nonzero;stroke:#555753;stroke-width:2;stroke-dasharray:none;stroke-opacity:1"
         d="M 49.506274,54.976365 H 14.493636 v -2.695244 h 0.0042 V 33.975368 c 0,-1.455451 1.132342,-2.63846 2.529801,-2.63846 h 29.94626 c 1.397376,0 2.529635,1.183009 2.529635,2.63846 v 18.305753 h 0.0025 z"
         id="path3" />
      <path
         id="path4"
         d="m 35.638801,21.628897 4.593745,-0.0015 c 0.754817,0 1.366667,-0.539369 1.368609,-1.203677 l -0.0075,-8.093548 c -0.0017,-0.662477 -0.613717,-1.200749 -1.371418,-1.198897 l -4.588994,0.0015 c -0.757692,0 -1.370951,0.538821 -1.370951,1.201351 l 0.0067,8.095463 c 0.0017,0.664448 0.614733,1.201762 1.369476,1.199706"
         style="fill:#2e3436;fill-opacity:1;fill-rule:nonzero;stroke:none;stroke-width:0.133333" />
      <rect
         style="display:inline;fill:#eeeeec;fill-rule:evenodd;stroke:#204a87;stroke-width:2;stroke-linecap:square;stroke-linejoin:round"
         id="rect16"
         width="28.636192"
         height="17.675844"
         x="17.682135"
         y="34.318714" />
      <g
         id="g22"
         transform="matrix(1,0,0,-1,2,85.019484)"
         style="stroke:#2e3436" />
      <g
         id="g24"
         transform="matrix(1,0,0,-1,2,86.019484)"
         style="stroke:#2e3436">
        <g
           id="g25"
           transform="matrix(0.85222107,0,0,1,3.6864856,0)"
           style="stroke-width:1.08324">
          <g
             id="g18"
             transform="matrix(1,0,0,-1,0,85.725695)"
             style="display:inline;stroke:#2e3436;stroke-width:1.08324">
            <path
               style="fill:#eeeeec;fill-rule:evenodd;stroke:#2e3436;stroke-width:2.16648;stroke-linecap:square;stroke-linejoin:round"
               d="M 22.453805,38.966225 V 46.75947"
               id="path16" />
            <path
               style="fill:#eeeeec;fill-rule:evenodd;stroke:#2e3436;stroke-width:2.16648;stroke-linecap:square;stroke-linejoin:round"
               d="m 23.874263,37.966225 h 1.071686"
               id="path17" />
            <path
               style="fill:#eeeeec;fill-rule:evenodd;stroke:#2e3436;stroke-width:2.16648;stroke-linecap:square;stroke-linejoin:round"
               d="m 19.96166,37.966225 h 1.071686"
               id="path19" />
          </g>
          <path
             style="fill:#eeeeec;fill-rule:evenodd;stroke:#2e3436;stroke-width:2.16648;stroke-linecap:square;stroke-linejoin:round"
             d="m 23.874263,37.966225 h 1.071686"
             id="path23" />
          <path
             style="fill:#eeeeec;fill-rule:evenodd;stroke:#2e3436;stroke-width:2.16648;stroke-linecap:square;stroke-linejoin:round"
             d="m 19.96166,37.966225 h 1.071686"
             id="path24" />
        </g>
      </g>
    </g>
  </g>
  <path
     sodipodi:nodetypes="cccccc"
     inkscape:connector-curvature="0"
     id="path3969"
     d="m 24.907938,19.092158 1.666669,7.500009 -7.50001,-1.666669 -0.833332,-1.666669 5.000005,-5.000005 z"
     style="fill:#ff3355;stroke:#0b1521;stroke-width:0.833334;stroke-linecap:butt;stroke-linejoin:round;stroke-opacity:1;fill-opacity:0.80000001" />
  <path
     sodipodi:nodetypes="ccccc"
     inkscape:connector-curvature="0"
     id="path3843"
     d="M 8.2412532,2.425469 6.5745848,4.0921377 23.24127,20.758826 c 0,-1.250001 0.416668,-1.666668 1.666668,-1.666668 z"
     style="fill:#cf7272;stroke:none;stroke-width:0.413024;fill-opacity:1" />
  <path
     sodipodi:nodetypes="ccccc"
     inkscape:connector-curvature="0"
     id="path3843-7"
     d="M 6.5745848,4.0921347 4.0745797,6.5921432 20.741265,23.258829 c 0,-1.250001 1.250006,-2.500003 2.500005,-2.500003 z"
     style="fill:url(#linearGradient3797);fill-opacity:1;stroke:none;stroke-width:0.413024" />
  <path
     sodipodi:nodetypes="ccccc"
     inkscape:connector-curvature="0"
     id="path3843-5"
     d="M 4.0745797,6.5921432 2.4079111,8.2588118 19.074597,24.925498 c 0,-1.250002 0.416668,-1.666669 1.666668,-1.666669 z"
     style="fill:url(#linearGradient3805);fill-opacity:1;stroke:none;stroke-width:0.413024" />
  <path
     sodipodi:nodetypes="ccccc"
     inkscape:connector-curvature="0"
     id="path3843-5-6"
     d="M 8.2412532,2.4254703 6.5745848,4.092139 23.24127,20.758826 c 0,-1.250001 0.416668,-1.666668 1.666668,-1.666668 z"
     style="fill:none;stroke:#0b1521;stroke-width:0.833334;stroke-linecap:butt;stroke-linejoin:round;stroke-opacity:1" />
  <path
     sodipodi:nodetypes="ccccc"
     inkscape:connector-curvature="0"
     id="path3843-5-6-2"
     d="M 6.5745848,4.092139 4.0745797,6.5921432 20.741265,23.258829 c 0,-1.250001 1.250006,-2.500003 2.500005,-2.500003 z"
     style="fill:none;stroke:#0b1521;stroke-width:0.833334;stroke-linecap:butt;stroke-linejoin:round;stroke-opacity:1" />
  <path
     style="fill:none;stroke:#ff0000;stroke-width:0.833334;stroke-linecap:butt;stroke-linejoin:miter;stroke-opacity:1"
     d="M 3.2412454,7.8421447 19.491264,24.157281"
     id="path3807"
     inkscape:connector-curvature="0"
     sodipodi:nodetypes="cc" />
  <path
     sodipodi:nodetypes="ccccc"
     inkscape:connector-curvature="0"
     id="path3843-5-6-9"
     d="M 4.0745797,6.5921432 2.4079111,8.2588118 19.074597,24.925498 c 0,-1.250002 0.416668,-1.666669 1.666668,-1.666669 z"
     style="fill:none;stroke:#0b1521;stroke-width:0.833334;stroke-linecap:butt;stroke-linejoin:round;stroke-opacity:1" />
  <path
     sodipodi:nodetypes="ccccc"
     inkscape:connector-curvature="0"
     id="path3971"
     d="m 25.128156,23.84066 c -0.416668,0 -1.487746,1.04843 -1.666668,2.083336 l 3.333337,0.833335 -1.25,-2.916671 h -0.416669"
     style="fill:#ff0000;fill-opacity:1;stroke:#ff0000;stroke-width:0.416667px;stroke-linecap:butt;stroke-linejoin:round;stroke-opacity:1" />
</svg>
